<mxfile host="app.diagrams.net" modified="2023-10-08T11:04:38.496Z" agent="Mozilla/5.0 (Windows NT 10.0; Win64; x64) AppleWebKit/537.36 (KHTML, like Gecko) Chrome/117.0.0.0 Safari/537.36" etag="HiP2FM6BF0NlPgb_SjJd" version="21.8.1" type="device">
  <diagram name="Страница — 1" id="yYlIIVKwlrLdv-Br3aaq">
    <mxGraphModel dx="1105" dy="604" grid="1" gridSize="10" guides="1" tooltips="1" connect="1" arrows="1" fold="1" page="1" pageScale="1" pageWidth="827" pageHeight="1169" math="0" shadow="0">
      <root>
        <mxCell id="0" />
        <mxCell id="1" parent="0" />
        <mxCell id="EYAyKh6oefIeHVM_I2kW-5" value="" style="rounded=0;orthogonalLoop=1;jettySize=auto;html=1;" edge="1" parent="1" source="EYAyKh6oefIeHVM_I2kW-1" target="EYAyKh6oefIeHVM_I2kW-4">
          <mxGeometry relative="1" as="geometry" />
        </mxCell>
        <mxCell id="EYAyKh6oefIeHVM_I2kW-18" value="" style="rounded=0;orthogonalLoop=1;jettySize=auto;html=1;" edge="1" parent="1" source="EYAyKh6oefIeHVM_I2kW-1">
          <mxGeometry relative="1" as="geometry">
            <mxPoint x="135" y="320" as="targetPoint" />
          </mxGeometry>
        </mxCell>
        <mxCell id="EYAyKh6oefIeHVM_I2kW-1" value="User" style="shape=umlActor;verticalLabelPosition=bottom;verticalAlign=top;html=1;outlineConnect=0;" vertex="1" parent="1">
          <mxGeometry x="50" y="415" width="30" height="60" as="geometry" />
        </mxCell>
        <mxCell id="EYAyKh6oefIeHVM_I2kW-3" value="System&lt;br&gt;" style="shape=umlActor;verticalLabelPosition=bottom;verticalAlign=top;html=1;outlineConnect=0;" vertex="1" parent="1">
          <mxGeometry x="777" y="414" width="30" height="60" as="geometry" />
        </mxCell>
        <mxCell id="EYAyKh6oefIeHVM_I2kW-8" value="" style="rounded=0;orthogonalLoop=1;jettySize=auto;html=1;" edge="1" parent="1" source="EYAyKh6oefIeHVM_I2kW-4" target="EYAyKh6oefIeHVM_I2kW-7">
          <mxGeometry relative="1" as="geometry" />
        </mxCell>
        <mxCell id="EYAyKh6oefIeHVM_I2kW-10" value="" style="rounded=0;orthogonalLoop=1;jettySize=auto;html=1;" edge="1" parent="1" source="EYAyKh6oefIeHVM_I2kW-4" target="EYAyKh6oefIeHVM_I2kW-9">
          <mxGeometry relative="1" as="geometry" />
        </mxCell>
        <mxCell id="EYAyKh6oefIeHVM_I2kW-4" value="&lt;div style=&quot;&quot;&gt;&lt;span style=&quot;background-color: initial;&quot;&gt;&lt;font style=&quot;font-size: 18px;&quot;&gt;Login&lt;/font&gt;&lt;/span&gt;&lt;/div&gt;" style="ellipse;whiteSpace=wrap;html=1;verticalAlign=middle;align=center;" vertex="1" parent="1">
          <mxGeometry x="81" y="150" width="125" height="60" as="geometry" />
        </mxCell>
        <mxCell id="EYAyKh6oefIeHVM_I2kW-14" value="" style="rounded=0;orthogonalLoop=1;jettySize=auto;html=1;" edge="1" parent="1" source="EYAyKh6oefIeHVM_I2kW-7">
          <mxGeometry relative="1" as="geometry">
            <mxPoint x="560" y="170" as="targetPoint" />
          </mxGeometry>
        </mxCell>
        <mxCell id="EYAyKh6oefIeHVM_I2kW-7" value="&lt;div style=&quot;&quot;&gt;&lt;span style=&quot;background-color: initial;&quot;&gt;&lt;font style=&quot;font-size: 18px;&quot;&gt;Username&lt;/font&gt;&lt;/span&gt;&lt;/div&gt;" style="ellipse;whiteSpace=wrap;html=1;verticalAlign=middle;align=center;" vertex="1" parent="1">
          <mxGeometry x="351" y="80" width="125" height="60" as="geometry" />
        </mxCell>
        <mxCell id="EYAyKh6oefIeHVM_I2kW-12" value="" style="rounded=0;orthogonalLoop=1;jettySize=auto;html=1;" edge="1" parent="1" source="EYAyKh6oefIeHVM_I2kW-9" target="EYAyKh6oefIeHVM_I2kW-11">
          <mxGeometry relative="1" as="geometry" />
        </mxCell>
        <mxCell id="EYAyKh6oefIeHVM_I2kW-9" value="&lt;div style=&quot;&quot;&gt;&lt;span style=&quot;background-color: initial;&quot;&gt;&lt;font style=&quot;font-size: 18px;&quot;&gt;Password&lt;/font&gt;&lt;/span&gt;&lt;/div&gt;" style="ellipse;whiteSpace=wrap;html=1;verticalAlign=middle;align=center;" vertex="1" parent="1">
          <mxGeometry x="351" y="190" width="125" height="60" as="geometry" />
        </mxCell>
        <mxCell id="EYAyKh6oefIeHVM_I2kW-16" value="" style="rounded=0;orthogonalLoop=1;jettySize=auto;html=1;entryX=0.25;entryY=0.1;entryDx=0;entryDy=0;entryPerimeter=0;" edge="1" parent="1" source="EYAyKh6oefIeHVM_I2kW-11" target="EYAyKh6oefIeHVM_I2kW-3">
          <mxGeometry relative="1" as="geometry">
            <mxPoint x="770" y="290" as="targetPoint" />
          </mxGeometry>
        </mxCell>
        <mxCell id="EYAyKh6oefIeHVM_I2kW-11" value="&lt;div style=&quot;font-size: 15px;&quot;&gt;Authentication&lt;br style=&quot;font-size: 15px;&quot;&gt;&lt;/div&gt;" style="ellipse;whiteSpace=wrap;html=1;verticalAlign=middle;align=center;fontSize=15;" vertex="1" parent="1">
          <mxGeometry x="560" y="150" width="125" height="60" as="geometry" />
        </mxCell>
        <mxCell id="EYAyKh6oefIeHVM_I2kW-21" value="" style="rounded=0;orthogonalLoop=1;jettySize=auto;html=1;" edge="1" parent="1" source="EYAyKh6oefIeHVM_I2kW-19" target="EYAyKh6oefIeHVM_I2kW-20">
          <mxGeometry relative="1" as="geometry" />
        </mxCell>
        <mxCell id="EYAyKh6oefIeHVM_I2kW-23" value="" style="rounded=0;orthogonalLoop=1;jettySize=auto;html=1;" edge="1" parent="1" source="EYAyKh6oefIeHVM_I2kW-19" target="EYAyKh6oefIeHVM_I2kW-22">
          <mxGeometry relative="1" as="geometry" />
        </mxCell>
        <mxCell id="EYAyKh6oefIeHVM_I2kW-19" value="&lt;div style=&quot;&quot;&gt;&lt;span style=&quot;background-color: initial;&quot;&gt;&lt;font style=&quot;font-size: 18px;&quot;&gt;Contacts&lt;/font&gt;&lt;/span&gt;&lt;/div&gt;" style="ellipse;whiteSpace=wrap;html=1;verticalAlign=middle;align=center;" vertex="1" parent="1">
          <mxGeometry x="140" y="290" width="125" height="60" as="geometry" />
        </mxCell>
        <mxCell id="EYAyKh6oefIeHVM_I2kW-20" value="&lt;div style=&quot;&quot;&gt;&lt;span style=&quot;background-color: initial;&quot;&gt;&lt;font style=&quot;font-size: 18px;&quot;&gt;Add contact&lt;/font&gt;&lt;/span&gt;&lt;/div&gt;" style="ellipse;whiteSpace=wrap;html=1;verticalAlign=middle;align=center;" vertex="1" parent="1">
          <mxGeometry x="350" y="270" width="125" height="60" as="geometry" />
        </mxCell>
        <mxCell id="EYAyKh6oefIeHVM_I2kW-22" value="&lt;div style=&quot;&quot;&gt;&lt;span style=&quot;background-color: initial;&quot;&gt;&lt;font style=&quot;font-size: 18px;&quot;&gt;Delete contact&lt;/font&gt;&lt;/span&gt;&lt;/div&gt;" style="ellipse;whiteSpace=wrap;html=1;verticalAlign=middle;align=center;" vertex="1" parent="1">
          <mxGeometry x="351" y="350" width="125" height="60" as="geometry" />
        </mxCell>
        <mxCell id="EYAyKh6oefIeHVM_I2kW-30" value="" style="rounded=0;orthogonalLoop=1;jettySize=auto;html=1;" edge="1" parent="1" target="EYAyKh6oefIeHVM_I2kW-26">
          <mxGeometry relative="1" as="geometry">
            <mxPoint x="260.7691256316198" y="653.8501130486463" as="sourcePoint" />
          </mxGeometry>
        </mxCell>
        <mxCell id="EYAyKh6oefIeHVM_I2kW-24" value="&lt;div style=&quot;&quot;&gt;&lt;span style=&quot;background-color: initial;&quot;&gt;&lt;font style=&quot;font-size: 18px;&quot;&gt;Chats&lt;/font&gt;&lt;/span&gt;&lt;/div&gt;" style="ellipse;whiteSpace=wrap;html=1;verticalAlign=middle;align=center;" vertex="1" parent="1">
          <mxGeometry x="130" y="610" width="125" height="60" as="geometry" />
        </mxCell>
        <mxCell id="EYAyKh6oefIeHVM_I2kW-34" value="" style="rounded=0;orthogonalLoop=1;jettySize=auto;html=1;" edge="1" parent="1" target="EYAyKh6oefIeHVM_I2kW-33">
          <mxGeometry relative="1" as="geometry">
            <mxPoint x="471.66207559004283" y="613.9816506358823" as="sourcePoint" />
          </mxGeometry>
        </mxCell>
        <mxCell id="EYAyKh6oefIeHVM_I2kW-25" value="&lt;div style=&quot;&quot;&gt;&lt;span style=&quot;font-size: 18px;&quot;&gt;Private chat&lt;/span&gt;&lt;/div&gt;" style="ellipse;whiteSpace=wrap;html=1;verticalAlign=middle;align=center;" vertex="1" parent="1">
          <mxGeometry x="351" y="580" width="125" height="60" as="geometry" />
        </mxCell>
        <mxCell id="EYAyKh6oefIeHVM_I2kW-26" value="&lt;div style=&quot;&quot;&gt;&lt;span style=&quot;background-color: initial;&quot;&gt;&lt;font style=&quot;font-size: 18px;&quot;&gt;Group chat&lt;/font&gt;&lt;/span&gt;&lt;/div&gt;" style="ellipse;whiteSpace=wrap;html=1;verticalAlign=middle;align=center;" vertex="1" parent="1">
          <mxGeometry x="351" y="653" width="125" height="60" as="geometry" />
        </mxCell>
        <mxCell id="EYAyKh6oefIeHVM_I2kW-28" value="" style="endArrow=classic;html=1;rounded=0;entryX=0.016;entryY=0.373;entryDx=0;entryDy=0;entryPerimeter=0;" edge="1" parent="1" source="EYAyKh6oefIeHVM_I2kW-1" target="EYAyKh6oefIeHVM_I2kW-24">
          <mxGeometry width="50" height="50" relative="1" as="geometry">
            <mxPoint x="70" y="410" as="sourcePoint" />
            <mxPoint x="120" y="360" as="targetPoint" />
          </mxGeometry>
        </mxCell>
        <mxCell id="EYAyKh6oefIeHVM_I2kW-31" value="" style="endArrow=classic;html=1;rounded=0;exitX=0.925;exitY=0.2;exitDx=0;exitDy=0;exitPerimeter=0;entryX=0;entryY=0.5;entryDx=0;entryDy=0;" edge="1" parent="1">
          <mxGeometry width="50" height="50" relative="1" as="geometry">
            <mxPoint x="255.625" y="625" as="sourcePoint" />
            <mxPoint x="351.0000000000032" y="603" as="targetPoint" />
          </mxGeometry>
        </mxCell>
        <mxCell id="EYAyKh6oefIeHVM_I2kW-33" value="&lt;div style=&quot;&quot;&gt;&lt;span style=&quot;font-size: 18px;&quot;&gt;Chat history&lt;/span&gt;&lt;/div&gt;" style="ellipse;whiteSpace=wrap;html=1;verticalAlign=middle;align=center;" vertex="1" parent="1">
          <mxGeometry x="560" y="613" width="125" height="60" as="geometry" />
        </mxCell>
        <mxCell id="EYAyKh6oefIeHVM_I2kW-35" value="" style="endArrow=classic;html=1;rounded=0;exitX=1;exitY=0.5;exitDx=0;exitDy=0;" edge="1" parent="1" source="EYAyKh6oefIeHVM_I2kW-26" target="EYAyKh6oefIeHVM_I2kW-33">
          <mxGeometry width="50" height="50" relative="1" as="geometry">
            <mxPoint x="390" y="623" as="sourcePoint" />
            <mxPoint x="440" y="573" as="targetPoint" />
          </mxGeometry>
        </mxCell>
        <mxCell id="EYAyKh6oefIeHVM_I2kW-36" value="" style="endArrow=classic;html=1;rounded=0;exitX=0.97;exitY=0.36;exitDx=0;exitDy=0;exitPerimeter=0;" edge="1" parent="1" source="EYAyKh6oefIeHVM_I2kW-33" target="EYAyKh6oefIeHVM_I2kW-3">
          <mxGeometry width="50" height="50" relative="1" as="geometry">
            <mxPoint x="390" y="480" as="sourcePoint" />
            <mxPoint x="770" y="310" as="targetPoint" />
          </mxGeometry>
        </mxCell>
        <mxCell id="EYAyKh6oefIeHVM_I2kW-37" value="&lt;div style=&quot;&quot;&gt;&lt;span style=&quot;background-color: initial;&quot;&gt;&lt;font style=&quot;font-size: 18px;&quot;&gt;Search users&lt;/font&gt;&lt;/span&gt;&lt;/div&gt;" style="ellipse;whiteSpace=wrap;html=1;verticalAlign=middle;align=center;" vertex="1" parent="1">
          <mxGeometry x="130" y="420" width="125" height="60" as="geometry" />
        </mxCell>
        <mxCell id="EYAyKh6oefIeHVM_I2kW-38" value="&lt;div style=&quot;&quot;&gt;&lt;span style=&quot;background-color: initial;&quot;&gt;&lt;font style=&quot;font-size: 18px;&quot;&gt;Users database&lt;/font&gt;&lt;/span&gt;&lt;/div&gt;" style="ellipse;whiteSpace=wrap;html=1;verticalAlign=middle;align=center;" vertex="1" parent="1">
          <mxGeometry x="560" y="450" width="125" height="60" as="geometry" />
        </mxCell>
        <mxCell id="EYAyKh6oefIeHVM_I2kW-41" value="" style="endArrow=classic;html=1;rounded=0;exitX=1;exitY=0.5;exitDx=0;exitDy=0;" edge="1" parent="1" source="EYAyKh6oefIeHVM_I2kW-38" target="EYAyKh6oefIeHVM_I2kW-3">
          <mxGeometry width="50" height="50" relative="1" as="geometry">
            <mxPoint x="420" y="450" as="sourcePoint" />
            <mxPoint x="470" y="400" as="targetPoint" />
          </mxGeometry>
        </mxCell>
        <mxCell id="EYAyKh6oefIeHVM_I2kW-42" value="" style="endArrow=classic;html=1;rounded=0;entryX=0.01;entryY=0.365;entryDx=0;entryDy=0;entryPerimeter=0;" edge="1" parent="1" source="EYAyKh6oefIeHVM_I2kW-1" target="EYAyKh6oefIeHVM_I2kW-37">
          <mxGeometry width="50" height="50" relative="1" as="geometry">
            <mxPoint x="420" y="450" as="sourcePoint" />
            <mxPoint x="470" y="400" as="targetPoint" />
          </mxGeometry>
        </mxCell>
        <mxCell id="EYAyKh6oefIeHVM_I2kW-43" value="" style="endArrow=classic;html=1;rounded=0;exitX=1;exitY=0.5;exitDx=0;exitDy=0;entryX=0;entryY=0.5;entryDx=0;entryDy=0;" edge="1" parent="1" source="EYAyKh6oefIeHVM_I2kW-37" target="EYAyKh6oefIeHVM_I2kW-38">
          <mxGeometry width="50" height="50" relative="1" as="geometry">
            <mxPoint x="420" y="450" as="sourcePoint" />
            <mxPoint x="470" y="400" as="targetPoint" />
          </mxGeometry>
        </mxCell>
        <mxCell id="EYAyKh6oefIeHVM_I2kW-44" value="&lt;div style=&quot;&quot;&gt;&lt;span style=&quot;background-color: initial;&quot;&gt;&lt;font style=&quot;font-size: 18px;&quot;&gt;Manage profile&lt;/font&gt;&lt;/span&gt;&lt;/div&gt;" style="ellipse;whiteSpace=wrap;html=1;verticalAlign=middle;align=center;" vertex="1" parent="1">
          <mxGeometry x="130" y="510" width="125" height="60" as="geometry" />
        </mxCell>
        <mxCell id="EYAyKh6oefIeHVM_I2kW-45" value="" style="endArrow=classic;html=1;rounded=0;entryX=0;entryY=0.5;entryDx=0;entryDy=0;" edge="1" parent="1" source="EYAyKh6oefIeHVM_I2kW-1" target="EYAyKh6oefIeHVM_I2kW-44">
          <mxGeometry width="50" height="50" relative="1" as="geometry">
            <mxPoint x="400" y="570" as="sourcePoint" />
            <mxPoint x="450" y="520" as="targetPoint" />
          </mxGeometry>
        </mxCell>
        <mxCell id="EYAyKh6oefIeHVM_I2kW-49" value="" style="endArrow=classic;html=1;rounded=0;exitX=1;exitY=0.5;exitDx=0;exitDy=0;entryX=0;entryY=1;entryDx=0;entryDy=0;" edge="1" parent="1" source="EYAyKh6oefIeHVM_I2kW-44" target="EYAyKh6oefIeHVM_I2kW-38">
          <mxGeometry width="50" height="50" relative="1" as="geometry">
            <mxPoint x="390" y="570" as="sourcePoint" />
            <mxPoint x="440" y="520" as="targetPoint" />
          </mxGeometry>
        </mxCell>
      </root>
    </mxGraphModel>
  </diagram>
</mxfile>
